<?xml version="1.0" standalone="no"?>
<!DOCTYPE svg PUBLIC "-//W3C//DTD SVG 1.1//EN" "http://www.w3.org/Graphics/SVG/1.1/DTD/svg11.dtd" >
<svg xmlns="http://www.w3.org/2000/svg" xmlns:xlink="http://www.w3.org/1999/xlink" version="1.1">
<metadata>
Created by FontForge 20170910 at Wed Sep 18 13:12:45 2013
 By Jimmy Wärting
SeasonFourteen(c) Xerographer Fonts. 2013. All Rights Reserved
</metadata>
<defs>
<font id="SeasonFourteen" horiz-adv-x="183" >
  <font-face 
    font-family="SeasonFourteen"
    font-weight="400"
    font-stretch="normal"
    units-per-em="2048"
    panose-1="2 0 5 0 0 0 0 0 0 0"
    ascent="1638"
    descent="-410"
    x-height="246"
    cap-height="964"
    bbox="-396 -978 1250 1003"
    underline-thickness="150"
    underline-position="-292"
    unicode-range="U+0020-F002"
  />
<missing-glyph horiz-adv-x="1244" 
 />
    <glyph glyph-name=".notdef" horiz-adv-x="1244" 
 />
    <glyph glyph-name="NULL" horiz-adv-x="0" 
 />
    <glyph glyph-name="nonmarkingreturn" horiz-adv-x="508" 
 />
    <glyph glyph-name="space" unicode=" " horiz-adv-x="679" 
 />
    <glyph glyph-name="space" unicode="&#xa0;" horiz-adv-x="679" 
 />
    <glyph glyph-name="uniF001" unicode="&#xf001;" horiz-adv-x="11" 
 />
    <glyph glyph-name="uniF001" unicode="&#xfb01;" horiz-adv-x="11" 
 />
    <glyph glyph-name="uniF002" unicode="&#xf002;" horiz-adv-x="11" 
 />
    <glyph glyph-name="uniF002" unicode="&#xfb02;" horiz-adv-x="11" 
 />
    <glyph glyph-name="A" unicode="A" horiz-adv-x="741" 
d="M452 262h5q28 0 37 -25q71 -15 71 -28q6 -6 6 -16q0 -25 -34 -29q-82 5 -91 5q-89 0 -218 -117q-44 -45 -56 -65h1q13 0 104 71q23 13 54 46q57 55 91 55l-1 2q1 0 1 1l5 -2q13 1 22 1t34 -10q25 0 49 -28q0 -5 22 -12v-2l-13 -3q33 -62 89 -139q44 -50 68 -59l33 -22
q-15 -29 -27 -47h-1q-33 17 -36 17h-14q-21 0 -64 49q-56 62 -80 103q-28 0 -40 34q-9 17 -10 17h-4q-30 0 -35 -8q-82 -89 -88 -89q-9 0 -27 -21q-120 -81 -177 -81q-55 0 -86 59q-7 17 -7 36v1q0 60 117 167q48 46 86 67q32 31 72 39q65 33 142 33z" />
    <glyph glyph-name="B" unicode="B" horiz-adv-x="523" 
d="M144 809h7q22 0 26 -32q0 -15 -24 -133q-7 0 -12 -303q0 -32 2 -97q1 -2 1 -3h38q8 15 41 15h22q1 0 1 -1q1 0 1 1q25 0 96 -16q9 3 14 3q13 -1 50 -20q2 8 5 8h20q10 0 36 -17q18 -11 41 -64q4 -16 4 -39v-1q0 -78 -93 -144q-37 -35 -118 -52q-6 -2 -19 -2h-2
q-8 0 -17 7h-18q-43 3 -127 68q-41 38 -48 59q-36 84 -36 204q0 81 9 236q-1 6 -1 11v2q10 120 22 176q13 51 24 51q0 2 12 6q20 71 30 71q0 3 13 6zM148 185q9 -63 24 -75q21 -41 46 -51q33 -13 54 -13h12q35 0 79 27q25 38 25 53q-22 32 -56 42q-59 17 -184 17z" />
    <glyph glyph-name="C" unicode="C" horiz-adv-x="546" 
d="M397 270q46 0 84 -22q8 -7 12 -25q33 -22 33 -44q0 -24 -30 -28q-5 0 -46 18q-10 6 -34 8q-56 -3 -136 -37q-48 -22 -108 -77q-29 -28 -29 -46q0 -36 69 -68q54 -19 119 -19h94q38 0 105 5l2 -3q0 -12 4 -50q-27 -4 -27 -5q-3 -17 -70 -21q-64 -5 -78 -7q-8 -16 -33 -16
q0 -1 -48 -3q-88 0 -185 48q-37 22 -37 43q-23 19 -23 94q0 62 38 101q27 36 60 59q54 37 107 61q32 14 67 22q5 5 56 8q14 3 34 4z" />
    <glyph glyph-name="D" unicode="D" horiz-adv-x="629" 
d="M585 738h2q32 0 32 -49q-14 -313 -31 -424q-20 -174 -25 -201q0 -7 -7 -25l1 -2v-1q-8 -8 -54 -92q-2 0 -21 -22l-1 2v14q0 22 -4 22q-1 0 -14 8q0 -3 -2 -3h-2q0 8 -12 17q0 3 -5 5v-3l1 -10l-2 -1q-56 -2 -56 -4q-9 -16 -45 -16h-17q-55 0 -116 19q-7 -4 -12 -4h-5
q-12 0 -54 18q-1 0 -1 -1q-3 -6 -5 -7h-17q-14 0 -35 15q-17 0 -41 61q-2 8 -2 17v4q0 74 109 120q66 27 119 27q3 0 7 -1q12 1 21 1h5q77 0 89 -30q0 -5 20 -13q20 -13 64 -62h1q30 249 34 304q4 13 22 185q5 24 14 32q8 6 11 6q6 83 14 83q9 11 20 11zM176 68
q10 -16 42 -27q56 -15 120 -15h17q1 0 1 -1l2 1h20q7 0 21 1v1q-19 25 -42 37q-42 29 -105 29q-45 0 -61 -15q-6 -3 -15 -11z" />
    <glyph glyph-name="E" unicode="E" horiz-adv-x="581" 
d="M399 273q84 0 131 -62q9 -21 9 -42q0 -41 -20 -75q-22 -33 -43 -55q-25 -24 -73 -39v-2l5 -1v-2q-27 -4 -45 -13q-12 -7 -64 -12q-24 -6 -71 -9v-2q32 -30 55 -33q67 -15 115 -15q58 0 165 15v-1q0 -6 8 -53l-52 -8q0 -21 -95 -26h-19q-53 0 -109 5q-10 -16 -26 -16
q-25 0 -87 18q-63 27 -84 81q-11 26 -17 52h-1q-46 0 -46 32q0 20 27 29q17 2 17 3q0 20 26 72q25 51 52 51q22 24 73 53q94 55 169 55zM218 52h1q86 12 148 45q37 21 37 35q-7 22 -30 22h-5q-49 0 -125 -65q-23 -25 -26 -37z" />
    <glyph glyph-name="F" unicode="F" horiz-adv-x="968" 
d="M1117 893q52 0 61 -21q0 -11 16 -13q56 -10 56 -39v-2q0 -23 -32 -27h-3q-13 0 -90 11q-36 0 -128 -48q-43 -16 -98 -66q-46 -52 -92 -139q-48 -91 -89 -216q-7 -19 -14 -70q51 0 228 23q2 -9 8 -54q-1 -2 -18 -4q0 -12 -32 -22l-86 -16q0 -22 -92 -28q0 -2 -28 -3
q-1 -20 -1 -29v-32q0 -14 18 -232q0 -7 1 -21q-4 -77 -9 -77l-52 3q0 1 -1 1q1 14 2 51q-14 0 -26 136q-7 50 -10 53q-22 0 -27 116v23q-11 0 -20 7q-146 -14 -251 -18l-191 -19q-14 0 -27 13q-14 -2 -25 -2q-30 6 -30 30q0 34 87 48q100 28 181 28q80 11 282 18
q11 55 36 123q8 10 14 14q68 198 93 249q14 32 90 116q55 53 86 65l72 32l81 30q28 8 60 8z" />
    <glyph glyph-name="G" unicode="G" horiz-adv-x="451" 
d="M328 303h2q37 -4 37 -33q26 -8 63 -46q11 -15 11 -29q-6 -25 -25 -25h-2v-1q10 -23 19 -113q2 -41 5 -41l-1 -5q3 -58 3 -80q0 -64 -14 -179q-6 -56 -17 -102q-38 -126 -129 -187q-64 -43 -120 -53q-20 -6 -87 -12q-6 30 -6 56q66 10 66 12q4 15 39 30q33 8 80 50
q54 61 59 83v1q0 11 20 165q7 59 7 140q0 42 -3 104q-21 -34 -50 -66q-52 -53 -106 -53q-11 -2 -24 -2h-1q-71 0 -96 67q-22 39 -22 55q-1 0 -1 10v8q0 20 23 69q9 42 33 60q30 27 50 34q71 63 158 80q20 3 29 3zM152 65v-2l1 -2q27 0 118 66q10 0 29 30q2 0 7 11
q-11 2 -11 5q19 9 32 24h1v1q-2 0 -15 1q-72 0 -140 -78q-22 -34 -22 -56z" />
    <glyph glyph-name="H" unicode="H" horiz-adv-x="497" 
d="M85 776h14q21 0 28 -30q5 -12 7 -63q-1 -56 -1 -99v-25l1 -13h-1q1 -2 1 -3l3 -101q0 -21 -1 -109q5 -273 15 -294q0 -9 8 -12h1q44 49 102 123q13 30 51 68q18 14 34 19q1 8 15 23q3 13 5 13l4 -4v2h1q10 -13 15 -13q10 0 10 -10q1 0 3 -4q3 0 19 7l5 -2l-10 -19
q7 -4 16 -21q21 -13 21 -15t-19 -5q13 -24 13 -86q0 -41 15 -100q27 -59 27 -61l-48 -25q-1 0 -25 38q-27 0 -35 73q-2 7 -14 103h-2q-68 -120 -121 -195l-20 -10q-14 -27 -48 -27l5 -14h-2l-7 4q0 -2 -1 -2q-3 0 -18 8l-11 -1h-4q-14 0 -33 15q-15 2 -15 4q6 5 8 5v2
q-52 25 -52 93q-9 63 -9 313q1 90 1 119q-1 6 -1 9l7 151q5 69 13 69q0 3 13 13v3q0 16 -1 45q0 29 18 41z" />
    <glyph glyph-name="I" unicode="I" 
d="M272 964h1q0 -16 7 -16q10 0 14 -4l2 1h11l6 -1q11 3 15 3v-1l-5 -8q12 -10 12 -26q0 -10 -11 -35q0 -11 -24 -42q0 -4 -48 -60q-13 -23 -48 -61h-1q-7 5 -7 6q-5 -2 -14 -2q-31 5 -31 31v2q0 8 5 20q-3 0 -5 14v4q0 20 30 63q4 4 14 9l-1 2q14 21 37 48q0 3 31 40
q5 9 10 13zM147 467h6q18 0 26 -23q1 -4 1 -9v-2q0 -13 -18 -78q-22 -165 -22 -301v-21q0 -101 26 -187q30 12 32 12q0 -1 19 -28v-22q-12 -7 -12 -8q-10 -23 -44 -23q-15 0 -41 15q-22 11 -22 24h-13q-12 8 -22 34q-28 85 -28 165q0 7 6 19q0 34 -4 123q0 14 19 159
q0 14 22 81q16 37 31 37q10 2 10 10q13 23 28 23z" />
    <glyph glyph-name="J" unicode="J" horiz-adv-x="212" 
d="M212 1003h1v-7q32 -8 32 -42q4 -8 5 -15q0 -38 -8 -92q-2 -24 -2 -49v-7q-10 0 -15 -12q-12 -10 -26 -10h-3q-20 0 -30 27q-15 2 -15 9q-13 15 -13 60q8 21 8 46q2 0 5 41l5 39q12 -9 13 -9q0 3 21 7q0 3 16 8q0 2 6 6zM162 493h6q23 0 26 -34q-2 -26 -21 -141
q-5 -53 -11 -164q-42 -387 -96 -631q-40 -153 -73 -213q-25 -61 -83 -126q-67 -60 -116 -72q-43 -14 -72 -14h-14q-36 0 -104 26v1q14 50 17 52l50 -13q0 10 65 18q36 10 73 30q25 17 33 25q0 6 43 74q48 86 74 200q13 68 21 68q27 173 52 351q16 87 33 276q17 147 33 193
q8 13 23 18q16 72 29 72q4 4 12 4z" />
    <glyph glyph-name="K" unicode="K" horiz-adv-x="632" 
d="M118 904q30 0 37 -46q5 -18 17 -185q1 -8 1 -17q-1 -26 -1 -51h-2q0 -1 2 -1q-2 -6 -2 -7q-5 -199 -12 -290q-1 -6 -4 -43v-1h1q9 35 80 71q65 30 165 62q60 23 117 58q3 2 15 4l10 -2q27 34 47 34h4q20 0 26 -28q0 -35 -100 -112q-54 -39 -160 -77q-93 -45 -93 -72v-6
q0 -40 188 -184q110 -85 185 -126q23 -12 83 -32v-1q-7 -16 -9 -28v-2q-2 0 -8 -20h-1q-25 7 -26 7q-7 -7 -17 -7h-3q-29 0 -132 59h-20q-30 0 -220 147q-33 24 -33 39q-3 0 -45 45q-55 66 -57 100q-3 0 -3 -2q-15 -257 -15 -292q0 -107 15 -191q-4 -2 -53 -10q-6 26 -7 26
q-25 0 -30 111q-4 35 -4 54q-19 7 -19 42v6q0 5 3 132h1q0 1 -1 1q0 1 1 9q3 123 10 123q5 0 6 77q6 133 14 246l4 127q0 2 -1 4q0 168 7 168q8 12 13 12q-2 29 -2 38q5 31 28 31z" />
    <glyph glyph-name="L" unicode="L" horiz-adv-x="205" 
d="M101 818h5q26 0 31 -47q0 -16 1 -27q-2 -42 -2 -88q0 -36 3 -92q-1 -78 -1 -88q0 -390 10 -419q13 -78 31 -141q25 -80 53 -124q25 -40 48 -40q18 0 79 25q19 -47 20 -51q-33 -12 -33 -16q0 -13 -43 -25q-11 -2 -19 -2h-2q-25 0 -60 19q-23 0 -42 33h-8q-24 0 -40 34
q-33 50 -68 156q-21 89 -21 120v2q0 4 5 15q-13 106 -13 240q3 104 3 229q0 11 -1 44l11 132q7 37 15 37q4 5 8 5q0 69 30 69z" />
    <glyph glyph-name="M" unicode="M" horiz-adv-x="953" 
d="M107 430q20 0 29 -21q2 -12 3 -36q-3 -133 -3 -191q0 -165 9 -227h1q25 23 51 62q37 41 52 49q27 29 38 36l-1 2v1h5q9 9 38 21q20 5 29 5q41 0 76 -47q56 -36 83 -36h1q41 0 156 125q17 31 62 74q17 13 36 22q21 39 40 45q26 0 34 -23q3 2 6 2v-2q0 -2 -6 -15
q25 0 35 -25q25 -9 27 -9v-2q-25 -8 -27 -8v-2q26 -40 30 -83q26 -143 60 -230q24 -62 24 -65v-2l-51 -19l-33 79q-20 0 -39 81q-30 107 -43 152q-43 23 -50 23q-99 -170 -163 -261q-26 -32 -44 -32h-10q-31 -25 -50 -25q-49 0 -128 121q-2 0 -32 29q-18 16 -28 20
q-32 -11 -56 -49l-25 -35h1q2 0 13 2v-1q-35 -31 -42 -47q-2 0 -7 -8q5 -2 6 -4v-1h-10q-17 -6 -44 -27q-18 -11 -34 -11h-2q-17 0 -27 10l-15 -3v1l7 7v1q-12 13 -17 27q-5 1 -19 36q-3 0 -18 12v1h17q0 6 -11 31q-3 10 -3 30q0 31 4 51l-1 7v21q2 223 14 223q0 4 15 14
q6 109 13 109q7 15 24 15z" />
    <glyph glyph-name="N" unicode="N" horiz-adv-x="584" 
d="M98 353h6q21 0 29 -31q2 -14 2 -27v-8q-2 -71 -2 -79v-21q6 -155 20 -169q3 -6 3 -7h1q15 3 43 29q64 64 99 81q53 37 94 37q65 0 107 -86q10 -6 33 -72q23 -50 42 -77q24 -25 53 -36q20 -11 20 -12l-13 -27q-11 -20 -12 -20q-4 0 -28 13q-5 -3 -14 -3h-2q-34 8 -76 62
q-20 28 -36 58h-3q-23 0 -38 49q-24 55 -34 57h-3q-11 0 -47 -24q-23 -11 -85 -86q-43 -49 -67 -60q-22 -14 -51 -14q-30 0 -68 38q-15 20 -19 54q-15 63 -15 126q-2 0 -2 15q7 163 19 163q7 12 15 12q0 65 29 65z" />
    <glyph glyph-name="O" unicode="O" horiz-adv-x="646" 
d="M284 257q14 0 25 -13q19 4 48 6q27 0 36 -19q2 -10 2 -12q0 -19 -24 -28q-95 -25 -135 -51q-87 -61 -87 -105q0 -33 110 -71q39 -12 83 -12q100 0 158 48q4 11 4 21v7q0 31 -69 41q-15 3 -36 3h-13q-53 0 -146 -6l-1 2q0 7 -3 52q2 2 4 2q5 0 40 2q0 17 57 22q11 1 27 1
h15q90 -3 104 -8q8 16 28 16q34 -5 84 -43q41 -36 41 -86q0 -49 -53 -111q-35 -33 -64 -41q-32 -17 -49 -17h-12q-42 -14 -127 -14q-86 0 -196 38q-39 15 -67 61q-28 30 -28 66q-3 4 -5 33q0 43 43 88q19 39 68 63q44 36 126 63q2 0 12 2z" />
    <glyph glyph-name="P" unicode="P" horiz-adv-x="365" 
d="M186 384q25 0 29 -32q-4 -25 -30 -108q-6 -24 -6 -26q17 3 28 3q14 0 47 -8q61 0 87 -79q14 -26 14 -52v-4q0 -97 -129 -181q-62 -37 -118 -58q-3 4 -10 24h-2q-28 -120 -56 -414v-14q0 -23 3 -52l-3 -2q-24 0 -24 -3l-2 1q-2 0 -25 -2q-4 26 -8 26q-14 9 -14 55v2
q2 62 2 83q-14 8 -14 30q13 229 30 245q4 0 9 40q22 128 30 170q44 160 51 187q5 9 22 60q24 65 42 65q8 0 14 19q14 25 33 25zM108 -83q47 26 47 32q0 22 38 45q44 31 59 59q3 0 4 8q-2 63 -6 63h-13q-11 0 -85 -10q-13 -47 -44 -197z" />
    <glyph glyph-name="Q" unicode="Q" horiz-adv-x="448" 
d="M327 274q22 0 31 -24q1 -1 35 -9q42 -12 42 -35v-1q0 -25 -27 -29h-4q-53 4 -68 4h-15q-76 0 -166 -98q-3 -7 -3 -9q16 -22 74 -22h9q3 0 38 27q30 18 61 18h7l-4 37h1q30 -33 30 -35h1l48 41h2l-21 -62l40 -15v-2q-27 -6 -33 -10q6 -14 6 -31v-9q0 -14 -23 -118
q-47 -239 -47 -372v-111q0 -2 -3 -2h-24q-1 0 -1 -1l-2 1h-24q-2 0 -2 2v45q-18 9 -18 60q0 4 -1 20q1 58 5 138q-12 8 -12 21v6q0 67 42 273h-1l-5 1q-69 -49 -129 -49h-2q-73 0 -106 56q-23 29 -23 59v6q4 55 12 69q4 22 53 61q2 0 28 24q18 12 60 33q71 42 139 42z" />
    <glyph glyph-name="R" unicode="R" horiz-adv-x="548" 
d="M82 256q31 0 41 -68q13 -95 13 -126v-77q56 45 160 97q91 38 237 41q2 -14 5 -54q-20 -2 -20 -8q-15 -15 -42 -15q-67 -13 -67 -16q0 -16 -63 -34q-35 -15 -121 -70q-21 0 -37 -25q-47 -52 -60 -52q-7 -4 -17 -4h-5q-42 0 -66 48q-5 12 -5 28v40q0 42 1 98q-1 10 -1 19
q2 116 12 116l7 8q-2 11 -2 21v1q0 20 17 28q5 4 13 4z" />
    <glyph glyph-name="S" unicode="S" horiz-adv-x="665" 
d="M509 333q45 0 54 -18q0 -5 9 -5q69 -6 69 -12q14 -7 14 -25q0 -17 -19 -26q-14 -5 -49 -5q-57 1 -77 1q-83 0 -208 -26q-50 -16 -50 -30q0 -22 65 -90q64 -32 106 -72q14 -21 24 -29q10 -12 35 -33l3 -5q8 5 12 5h1v-1q-7 -13 -8 -13q3 -7 3 -17q0 -14 -9 -26
q4 -10 4 -18q-6 3 -12 7q-9 -17 -56 -38q-31 -19 -116 -37q-60 -13 -248 -26q-168 -19 -215 -27q-2 4 -7 55l55 8q0 9 23 18q46 11 210 32q0 12 29 19q151 16 231 34q-43 41 -69 51q-107 61 -179 115q-35 27 -39 47l-1 13v3q0 33 35 80q68 62 110 67l93 17q13 0 119 7h58z
" />
    <glyph glyph-name="T" unicode="T" horiz-adv-x="698" 
d="M499 955q19 0 28 -25q2 -11 2 -17q0 -12 -18 -153q-5 -48 -31 -233q-5 -38 -19 -134q111 -4 167 -4h96q21 0 67 5q4 -9 8 -54q-17 -3 -17 -5q-12 -18 -34 -18q-12 -3 -87 -8q-6 -19 -51 -19q-24 -2 -66 -2h-15q-31 0 -84 1q-30 -232 -30 -308q-7 -78 -7 -118v-1
q0 -21 3 -71l-26 -4q-1 0 -1 1q-15 -2 -26 -2q-2 1 -4 26q-19 7 -19 51q-1 0 -1 26v85q-16 9 -16 42v4q0 115 20 255q9 11 9 23q-11 0 -11 1q-24 -1 -38 -1h-38q-275 11 -278 11q-16 0 -31 17l-16 -1q-35 4 -35 27v5q0 34 85 39q96 9 105 9l246 -5q0 -1 24 -2q0 31 31 228
q15 90 17 118q4 11 20 93q13 51 21 51q0 3 13 9q8 45 13 45q7 13 24 13z" />
    <glyph glyph-name="U" unicode="U" horiz-adv-x="652" 
d="M133 237q8 0 24 -10q22 6 29 6q31 -5 31 -29q0 -22 -44 -46q-20 -10 -27 -35q-7 -34 -7 -47v-12q0 -48 50 -85q15 -10 34 -10q47 0 237 101q39 21 128 96q1 0 19 13h2q33 -38 33 -44q-1 0 -17 -11v-3q0 -23 -45 -58q-18 -17 -41 -40q0 -26 -57 -56q-144 -79 -157 -79
q-14 0 -37 -10q-50 -15 -81 -15h-6q-102 0 -147 106q-19 52 -19 84q5 71 11 71l22 53q39 60 65 60z" />
    <glyph glyph-name="V" unicode="V" horiz-adv-x="507" 
d="M73 272q30 0 63 -79q25 -49 50 -144q33 -87 46 -96q2 -1 5 -1h2q29 0 146 117q1 0 53 51l22 19q1 0 37 -40q0 -2 -8 -9l1 -7v-7q0 -17 -54 -73q0 -2 -4 -6q3 -6 3 -13q0 -19 -53 -72q-78 -83 -111 -83h-1q-5 0 -13 4q-3 0 -12 -1q-45 3 -100 43q-39 46 -62 134
q-13 39 -25 84q-3 8 -10 51q-13 38 -13 49q0 13 13 25q-6 13 -6 24q0 24 31 30z" />
    <glyph glyph-name="W" unicode="W" horiz-adv-x="830" 
d="M117 352h6q23 0 28 -34v-5q-10 -116 -10 -128q0 -91 19 -169q17 -40 38 -40h8q11 0 30 7q38 63 104 63q60 0 118 -57q18 -7 100 -85q43 -38 85 -38q58 0 129 130l2 1q46 -25 46 -28q-17 -31 -17 -35q4 -7 4 -12v-2q0 -32 -62 -89q-27 -17 -29 -22q17 -6 18 -6v-2
q-44 -8 -61 -16v-8q-5 -29 -36 -29h-6q-87 0 -155 71q-62 56 -73 83q-21 27 -23 27q-1 1 -5 1h-9q-39 0 -53 -26q-62 -74 -125 -74q-61 0 -110 80q-19 36 -31 76q-9 51 -9 78q-2 0 -3 20q3 29 3 33v16q4 133 18 138q10 13 21 13h2q10 68 38 68z" />
    <glyph glyph-name="X" unicode="X" horiz-adv-x="880" 
d="M782 306q37 0 48 -23q0 -12 15 -12q25 -11 25 -28v-5q0 -19 -24 -28q-8 -3 -21 -3q-12 0 -43 2q-3 0 -30 -25q-85 -56 -225 -159q96 -121 150 -142q0 -3 44 -22v-1q0 -5 -23 -50q-2 0 -16 8q0 -5 -21 -9q-33 2 -100 53h-20q-25 0 -102 91q-9 -6 -149 -122
q-47 -36 -54 -36q-30 43 -30 45q10 6 10 7v10q0 17 53 64q0 1 14 13q-2 4 -2 9v2q0 21 45 59q44 40 44 42t1 4q-62 78 -124 149q-9 6 -15 6q-17 -3 -35 -22q-18 -20 -59 -80q-14 -12 -26 -12q-4 1 -9 1q-20 -30 -35 -30h-7q-21 0 -26 31v1q0 22 51 114q23 43 49 64
q28 22 93 22q6 1 13 1q54 0 108 -61q44 -31 89 -95q1 -3 22 -29q96 83 120 91q96 63 113 78q10 3 48 21q21 6 41 6z" />
    <glyph glyph-name="Y" unicode="Y" horiz-adv-x="479" 
d="M150 299h2q28 -4 28 -25v-8q0 -3 -20 -61q-15 -49 -15 -94v-1q0 -47 21 -73q4 -10 18 -21q23 0 63 36q37 27 50 43q46 56 72 65q-2 23 -2 33h1l28 -31q4 26 6 26h1l12 -29h12q2 0 8 -14h7l2 -1q-5 -12 -5 -13q30 -17 30 -73q0 -63 -54 -349q-26 -93 -58 -163
q-29 -84 -57 -128q-37 -67 -165 -168q-58 -47 -110 -58l-46 -11q-17 44 -17 52v1q67 25 67 28q2 13 51 49q35 27 105 100q15 17 15 22q0 8 64 169q29 79 51 187q11 69 22 69q9 61 19 163q-55 -53 -91 -80h3v-2q-8 0 -36 -18q-24 -10 -45 -10q-7 0 -19 2q-14 -3 -29 -4
q-27 0 -49 27q-22 5 -22 7l14 5q-19 21 -30 84q-8 20 -8 82v20q0 1 1 1q0 1 -1 1l1 6q0 69 26 78q7 2 13 2h2l2 -1q36 78 62 78z" />
    <glyph glyph-name="Z" unicode="Z" horiz-adv-x="587" 
d="M272 328h1q27 0 70 -13q91 0 112 -60q8 -24 18 -24q2 -3 5 -3v-2h-11q1 -10 1 -16v-8q-4 -75 -9 -75q0 -12 -33 -64q-61 -95 -69 -133v-5q0 -38 27 -50q21 -9 92 -18q90 -11 101 -13v-1q-4 -53 -8 -53q-6 0 -25 3q-9 -17 -38 -17q-44 0 -123 12q-10 -15 -27 -15
q-25 0 -73 26q-52 46 -52 107q0 50 48 142q4 5 17 13q18 32 71 116q8 15 15 33q-6 10 -32 10q0 2 -36 3q-12 0 -136 -15q-26 -1 -29 -1q-40 0 -50 14l-6 11q-50 0 -58 33v6q0 25 42 30q59 0 130 14q34 13 65 13z" />
    <glyph glyph-name="a" unicode="a" horiz-adv-x="708" 
d="M432 251h5q27 0 35 -24q68 -15 68 -26q5 -6 5 -16q0 -24 -32 -27q-78 5 -87 5q-84 0 -207 -112q-42 -43 -54 -62h1q12 0 99 68q22 12 52 44q54 52 87 52l-1 2q1 0 1 1l4 -2q13 1 21 1q9 0 33 -10q24 0 46 -26q0 -5 21 -12v-2l-12 -2q31 -60 85 -133q42 -48 64 -56l32 -21
q-14 -28 -26 -45h-1q-31 16 -34 16h-13q-21 0 -61 47q-53 59 -77 98q-27 0 -38 33q-8 16 -9 16h-4q-28 0 -33 -8q-78 -85 -84 -85q-9 0 -26 -20q-114 -77 -168 -77q-53 0 -82 56q-7 17 -7 35v1q0 57 111 159q46 43 82 64q31 29 69 37q62 31 135 31z" />
    <glyph glyph-name="b" unicode="b" horiz-adv-x="500" 
d="M139 746h6q21 0 25 -30q0 -15 -23 -127q-6 0 -11 -288q0 -31 2 -93q1 -2 1 -3h36q7 15 39 15h21q1 0 1 -1q1 0 1 1q23 0 91 -16q9 3 14 3q12 -1 47 -19q3 8 5 8h19q9 0 34 -16q18 -10 39 -61q4 -15 4 -37v-1q0 -74 -88 -138q-35 -33 -113 -49q-5 -2 -18 -2h-2q-7 0 -16 7
h-17q-41 2 -121 64q-39 37 -46 57q-34 80 -34 194q0 78 9 225q-1 6 -1 10v2q9 114 21 168q12 48 22 48q0 2 12 6q19 68 28 68q0 3 13 5zM143 152q9 -60 22 -71q21 -39 44 -49q31 -12 52 -12h11q34 0 75 25q24 37 24 51q-21 30 -53 40q-56 16 -175 16z" />
    <glyph glyph-name="c" unicode="c" horiz-adv-x="504" 
d="M362 259q44 0 80 -21q7 -7 11 -24q32 -22 32 -42q0 -23 -29 -27q-5 0 -44 18q-9 5 -32 7q-53 -3 -130 -35q-45 -22 -103 -73q-27 -27 -27 -44q0 -35 66 -65q51 -18 113 -18h89q37 0 100 5l2 -3q0 -12 4 -48q-26 -4 -26 -5q-3 -16 -66 -20q-61 -4 -75 -6q-8 -15 -31 -15
q0 -2 -46 -3q-83 0 -176 45q-35 21 -35 41q-22 18 -22 90q0 59 36 96q26 34 57 56q52 35 102 58q31 14 64 21q5 5 53 8q14 3 33 4z" />
    <glyph glyph-name="d" unicode="d" horiz-adv-x="601" 
d="M559 648h2q30 0 30 -47q-13 -299 -29 -404q-19 -166 -24 -191q0 -7 -7 -24l1 -2v-1q-7 -7 -15 -40q-2 -4 -3 -4q2 -4 2 -6q-2 0 -19 -21q-6 0 -16 -16q-2 -1 -20 -21l-1 2v13q0 21 -4 21q-1 0 -13 7q0 -2 -2 -2h-2q0 7 -12 16q0 3 -4 5v-3l1 -10l-2 -1q-54 -2 -54 -4
q-8 -15 -43 -15h-16q-52 0 -110 18q-7 -4 -12 -4h-4q-11 0 -52 18q-1 0 -1 -1q-3 -7 -5 -7h-16q-13 0 -33 14q-17 0 -39 58q-2 8 -2 17v3q0 71 104 115q62 25 113 25q3 0 7 -1q11 1 20 1h5q73 0 84 -28q0 -5 19 -13q20 -12 61 -59h1q29 237 33 290q3 12 21 176q4 22 13 31
q8 5 10 5q6 79 14 79q8 11 19 11zM169 10q9 -16 40 -26q53 -14 115 -14h16q1 0 1 -1l2 1h19q7 0 20 1v1q-18 23 -40 35q-40 27 -100 27q-44 0 -58 -14q-6 -3 -15 -10z" />
    <glyph glyph-name="e" unicode="e" horiz-adv-x="555" 
d="M382 262q80 0 124 -59q9 -21 9 -40q0 -40 -19 -72q-21 -31 -41 -52q-24 -23 -70 -37v-2l5 -1v-2q-26 -4 -43 -13q-11 -6 -61 -11q-22 -6 -67 -9v-1q31 -29 52 -32q64 -14 110 -14q55 0 157 14v-1q0 -6 7 -50l-49 -8q0 -20 -91 -25h-18q-50 0 -103 5q-10 -15 -25 -15
q-24 0 -83 17q-60 25 -80 77q-11 25 -16 50h-1q-44 0 -44 30q0 19 26 28q16 1 16 3q0 18 25 68q24 49 49 49q21 23 70 50q89 53 161 53zM209 51h1q82 11 141 43q35 20 35 33q-6 21 -28 21h-5q-46 0 -119 -62q-22 -24 -25 -35z" />
    <glyph glyph-name="f" unicode="f" horiz-adv-x="741" 
d="M988 975q50 0 59 -20q0 -10 15 -12q53 -10 53 -37v-2q0 -22 -30 -26h-3q-12 0 -86 11q-34 0 -122 -46q-40 -15 -93 -63q-44 -50 -88 -132q-45 -87 -85 -206q-6 -19 -17 -68q1 0 4 1q48 0 217 22q2 -8 8 -51q-1 -2 -17 -4q0 -12 -31 -21l-82 -15q0 -21 -87 -27
q0 -1 -27 -3q-1 -19 -1 -27v-31q0 -14 17 -221q0 -7 1 -20q-4 -73 -8 -73l-50 3q0 1 -1 1q1 13 2 48q-13 0 -25 130q-6 47 -9 50q-21 0 -26 111v22q-10 0 -19 6q-139 -14 -239 -17l-182 -18q-14 0 -26 13q-13 -2 -23 -2q-29 5 -29 28q0 33 83 46q95 27 172 27q77 10 269 17
q10 52 34 117q7 9 13 13q66 189 89 237q13 30 86 111q52 50 82 62l68 30l77 29q27 7 57 7z" />
    <glyph glyph-name="g" unicode="g" horiz-adv-x="432" 
d="M314 271h2q35 -4 35 -32q25 -7 60 -44q11 -14 11 -27q-6 -24 -24 -24h-2v-1q9 -22 18 -108q2 -39 5 -39l-1 -4q3 -56 3 -77q0 -61 -14 -170q-5 -53 -16 -97q-36 -120 -123 -178q-61 -42 -114 -51q-19 -6 -83 -11q-6 28 -6 53q63 9 63 12q4 14 37 28q32 8 77 48
q51 58 56 79v1q0 10 19 157q7 56 7 133q0 40 -3 99q-20 -33 -48 -63q-50 -50 -101 -50q-11 -2 -23 -2h-1q-67 0 -91 64q-21 36 -21 52q-1 0 -1 10v7q0 20 22 66q9 40 31 57q29 26 48 33q67 59 150 76q20 3 28 3zM146 44v-2l1 -2q26 0 113 63q10 0 27 29q2 0 7 10
q-10 2 -10 5q17 9 30 23h1v1q-1 0 -14 1q-69 0 -134 -75q-21 -33 -21 -53z" />
    <glyph glyph-name="h" unicode="h" horiz-adv-x="475" 
d="M83 774h13q20 0 27 -29q4 -11 6 -60q-1 -53 -1 -94v-24l1 -12h-1q1 -2 1 -3l3 -96q0 -21 -1 -104q5 -260 14 -280q0 -8 8 -11h1q42 46 97 117q13 28 49 65q17 13 32 18q1 7 14 22q3 12 5 12l4 -4v2h1q9 -12 14 -12q10 0 10 -10q1 0 3 -4q2 0 18 7l4 -2l-9 -18
q6 -4 15 -20q20 -13 20 -14q0 -3 -18 -5q12 -23 12 -82q0 -39 15 -95q25 -56 25 -58l-45 -24q-1 0 -24 36q-25 0 -33 70q-2 6 -14 98h-2q-65 -115 -115 -186l-19 -10q-14 -25 -46 -25l5 -14h-2l-6 4q0 -2 -1 -2q-3 0 -18 8l-10 -1h-4q-13 0 -31 14q-15 1 -15 4q6 5 8 5v2
q-49 23 -49 88q-9 60 -9 298q1 86 1 114q-1 5 -1 8l7 144q4 66 12 66q0 3 12 12v3q0 15 -1 43q0 28 18 39z" />
    <glyph glyph-name="i" unicode="i" horiz-adv-x="172" 
d="M261 924h1q0 -15 6 -15q10 0 14 -4l2 1h10l6 -1q10 3 14 3v-1l-5 -7q12 -10 12 -25q0 -9 -11 -33q0 -10 -23 -40q0 -4 -45 -58q-12 -21 -46 -58h-1q-7 5 -7 6q-4 -2 -13 -2q-30 5 -30 30v2q0 8 5 19q-3 0 -5 13v4q0 19 29 60q4 4 13 8l-1 2q14 21 36 46q0 3 29 38
q5 9 10 12zM142 451h5q17 0 25 -22q1 -4 1 -8v-2q0 -12 -17 -75q-21 -156 -21 -286v-20q0 -96 25 -178q29 11 30 11q0 -1 18 -27v-21q-11 -6 -11 -7q-10 -22 -42 -22q-15 0 -39 14q-21 11 -21 23h-12q-12 8 -21 32q-27 82 -27 158q0 7 6 18q0 32 -4 117q0 13 18 151
q0 14 21 77q16 36 29 36q10 2 10 9q13 22 27 22z" />
    <glyph glyph-name="j" unicode="j" horiz-adv-x="194" 
d="M194 836h1v-6q30 -8 30 -40q4 -8 5 -15q0 -35 -7 -87q-2 -23 -2 -47v-7q-10 0 -15 -11q-11 -10 -24 -10h-3q-19 0 -29 26q-14 2 -14 9q-12 14 -12 57q7 21 7 44q2 0 5 39l5 37q11 -9 12 -9q0 4 20 7q0 3 15 8q0 2 6 5zM146 351h6q22 0 25 -33q-2 -24 -20 -134
q-5 -50 -11 -156q-40 -369 -91 -601q-38 -146 -70 -203q-23 -58 -79 -120q-64 -57 -110 -69q-41 -13 -69 -13h-13q-35 0 -99 25v1q13 48 16 49l48 -12q0 10 62 17q34 10 69 29q24 16 32 23q0 6 41 71q46 82 70 190q12 65 20 65q26 165 50 334q15 84 31 263q16 140 31 184
q8 13 22 17q16 69 28 69q4 4 11 4z" />
    <glyph glyph-name="k" unicode="k" horiz-adv-x="489" 
d="M114 954q29 0 35 -44q5 -17 16 -176q1 -8 1 -16q-1 -25 -1 -49h-1q0 -1 1 -1q-1 -5 -1 -6q-5 -190 -12 -277q-1 -5 -4 -41v-1h1q9 34 76 68q62 29 158 59q57 22 111 55q3 2 14 4l10 -2q26 33 45 33h3q19 0 25 -27q0 -33 -95 -107q-52 -37 -152 -73q-89 -43 -89 -69v-5
q0 -38 179 -176q105 -80 176 -120q22 -11 79 -30v-1q-6 -15 -8 -27v-2q-2 0 -8 -19h-1q-24 7 -25 7q-6 -7 -16 -7h-3q-27 0 -125 57h-19q-29 0 -210 140q-31 22 -31 37q-4 0 -43 43q-52 62 -55 95q-2 0 -2 -2q-15 -245 -15 -278q0 -102 15 -182q-4 -2 -51 -10q-6 25 -7 25
q-23 0 -28 106q-4 33 -4 51q-18 7 -18 40v6q0 5 3 126h1q0 1 -1 1q0 1 1 8q2 117 9 117q5 0 6 74q6 126 13 234l4 121q0 3 -1 4q0 160 7 160q7 11 12 11q-2 28 -2 36q5 30 27 30z" />
    <glyph glyph-name="l" unicode="l" 
d="M98 750h5q25 0 29 -45q0 -15 1 -25q-2 -41 -2 -84q0 -35 3 -88q-1 -74 -1 -84q0 -371 10 -399q12 -74 29 -134q24 -76 51 -118q23 -38 45 -38q17 0 76 24q18 -45 19 -49q-32 -11 -32 -15q0 -13 -41 -24q-10 -2 -18 -2h-2q-23 0 -57 18q-22 0 -40 32h-8q-22 0 -38 32
q-31 47 -64 149q-20 84 -20 114v2q0 3 4 14q-12 101 -12 229q3 99 3 218q0 10 -1 42l10 125q7 36 15 36q4 4 7 4q0 66 29 66z" />
    <glyph glyph-name="m" unicode="m" horiz-adv-x="959" 
d="M104 434q19 0 27 -20q2 -11 3 -34q-3 -126 -3 -182q0 -156 9 -216h1q23 22 48 59q35 39 50 47q25 27 36 34l-1 2v1h5q9 8 36 20q20 5 28 5q39 0 72 -45q54 -34 79 -34h1q39 0 149 119q16 30 59 70q16 13 34 21q20 38 38 43q25 0 32 -22q3 2 6 2v-2q0 -1 -6 -14
q24 0 34 -24q23 -9 25 -9v-2q-23 -7 -25 -7v-2q25 -38 28 -79q25 -136 57 -219q23 -59 23 -62v-2l-48 -18l-32 75q-18 0 -37 77q-28 102 -41 145q-41 22 -47 22q-95 -162 -156 -249q-25 -30 -42 -30h-9q-30 -24 -48 -24q-47 0 -122 115q-2 0 -30 28q-17 15 -27 19
q-30 -10 -53 -47l-24 -33h1q2 0 12 2v-1q-33 -29 -40 -45q-2 0 -6 -7q5 -2 5 -4v-1h-9q-16 -6 -42 -26q-17 -10 -32 -10h-2q-16 0 -26 9l-14 -3v1q0 1 6 7v1q-11 13 -16 26q-4 0 -18 34q-3 0 -17 11v1h16q0 6 -10 30q-3 9 -3 28q0 30 4 49l-1 7v20q2 212 13 212q0 4 14 13
q6 104 13 104q6 14 23 14z" />
    <glyph glyph-name="n" unicode="n" horiz-adv-x="508" 
d="M95 299h6q20 0 27 -29q2 -13 2 -26v-8q-2 -67 -2 -75v-20q6 -147 19 -161q3 -6 3 -7h1q15 4 41 28q61 62 94 77q51 35 90 35q62 0 102 -81q9 -6 31 -69q22 -48 40 -73q23 -24 51 -35q19 -10 19 -11l-13 -26q-10 -19 -11 -19q-4 0 -27 13q-5 -3 -13 -3h-2q-32 8 -72 59
q-20 27 -35 55h-2q-22 0 -37 47q-23 53 -32 54h-3q-10 0 -45 -23q-22 -10 -81 -82q-41 -47 -63 -57q-22 -13 -49 -13q-29 0 -65 36q-14 19 -18 51q-14 61 -14 120q-2 0 -2 15q7 155 18 155q7 11 14 11q0 62 28 62z" />
    <glyph glyph-name="o" unicode="o" horiz-adv-x="617" 
d="M272 246q14 0 24 -13q18 4 46 6q25 0 34 -18q2 -9 2 -11q0 -18 -23 -27q-90 -24 -129 -49q-82 -57 -82 -100q0 -31 104 -67q38 -12 79 -12q96 0 151 46q4 11 4 20v7q0 29 -66 39q-14 3 -34 3h-13q-50 0 -139 -6l-1 2q0 7 -3 49q2 2 4 2q5 0 38 2q0 16 55 21q10 1 25 1h15
q86 -3 99 -8q7 16 26 16q32 -5 80 -41q39 -35 39 -82t-50 -106q-34 -31 -61 -39q-31 -16 -47 -16h-11q-40 -13 -121 -13q-82 0 -187 36q-36 15 -64 58q-26 29 -26 63q-3 4 -5 31q0 41 41 84q18 37 65 60q42 35 120 60q1 0 11 2z" />
    <glyph glyph-name="p" unicode="p" horiz-adv-x="379" 
d="M208 389q23 0 28 -30q-4 -24 -29 -103q-6 -23 -6 -25q17 3 27 3q13 0 45 -8q58 0 83 -75q13 -25 13 -49v-4q0 -93 -123 -173q-59 -35 -112 -55q-3 4 -10 23h-2q-26 -114 -53 -394v-14q0 -22 3 -49l-3 -2q-23 0 -23 -3l-2 1q-2 0 -24 -2q-3 25 -7 25q-14 8 -14 52v2
q2 59 2 79q-13 8 -13 29q12 218 29 233q4 0 8 38q21 122 29 162q42 153 48 178q5 8 21 57q23 62 40 62q8 0 14 18q13 24 31 24zM134 -56q44 25 44 31q0 20 37 43q42 29 56 56q3 0 4 8q-2 60 -6 60h-12q-10 0 -81 -10q-13 -45 -42 -188z" />
    <glyph glyph-name="q" unicode="q" horiz-adv-x="429" 
d="M313 263q21 0 30 -23q1 -2 33 -9q40 -12 40 -33v-1q0 -24 -26 -28h-4q-50 4 -64 4h-15q-72 0 -158 -93q-3 -7 -3 -9q16 -21 71 -21h8q4 0 37 26q28 17 58 17h6l-3 35h1q28 -31 28 -33h1l46 39h2l-20 -59l38 -14v-2q-26 -6 -32 -10q6 -13 6 -29v-9q0 -13 -22 -112
q-45 -228 -45 -355v-105q0 -2 -2 -2h-23q-1 0 -1 -1l-2 1h-23q-2 0 -2 2v43q-17 8 -17 57q0 3 -1 19q1 55 5 131q-12 7 -12 20v6q0 63 40 260h-1l-4 1q-66 -47 -123 -47h-2q-70 0 -101 54q-22 27 -22 56v5q4 53 11 66q4 20 51 58q2 0 27 23q17 11 57 32q67 40 132 40z" />
    <glyph glyph-name="r" unicode="r" horiz-adv-x="524" 
d="M80 305q30 0 39 -64q12 -92 12 -120v-74q53 43 153 93q86 36 225 39q2 -13 5 -52q-19 -2 -19 -7q-14 -15 -40 -15q-64 -12 -64 -15q0 -15 -60 -32q-33 -15 -115 -67q-20 0 -35 -24q-45 -49 -57 -49q-8 -4 -17 -4h-4q-40 0 -63 46q-5 11 -5 26v38q0 40 1 94q-1 9 -1 18
q2 110 11 110l7 8q-2 10 -2 20v1q0 18 16 27q5 3 13 3z" />
    <glyph glyph-name="s" unicode="s" horiz-adv-x="699" 
d="M550 309q43 0 51 -17q0 -5 9 -5q66 -6 66 -12q13 -7 13 -23q0 -17 -18 -25q-13 -5 -47 -5q-54 1 -73 1q-79 0 -198 -25q-48 -15 -48 -28q0 -21 62 -86q61 -31 101 -69q14 -20 23 -27q9 -12 33 -32l3 -4q8 4 11 4h1v-1q-6 -12 -7 -12q3 -7 3 -16q0 -14 -9 -25q4 -10 4 -17
q-6 3 -12 7q-8 -17 -53 -37q-30 -18 -110 -35q-58 -12 -237 -25q-159 -18 -204 -25q-2 3 -7 52l52 8q0 8 22 17q44 10 200 30q0 11 28 18q143 16 220 33q-41 39 -66 48q-102 59 -170 110q-33 26 -37 45l-1 12v3q0 31 33 76q65 59 105 64l88 16q13 0 114 7h55z" />
    <glyph glyph-name="t" unicode="t" horiz-adv-x="661" 
d="M499 906q19 0 27 -23q2 -11 2 -17q0 -11 -17 -145q-5 -47 -30 -222q-4 -36 -18 -128q106 -4 159 -4h92q20 0 64 5q3 -9 7 -51q-16 -4 -16 -5q-12 -17 -32 -17q-12 -3 -83 -8q-6 -18 -49 -18q-23 -2 -63 -2h-14q-29 0 -80 1q-29 -221 -29 -293q-6 -75 -6 -113v-1
q0 -20 3 -67l-25 -4q-1 0 -1 1q-14 -2 -25 -2q-2 1 -4 25q-18 6 -18 48q-1 0 -1 25v81q-15 9 -15 40v4q0 109 19 243q9 10 9 22q-11 0 -11 1q-22 -1 -36 -1h-36q-262 10 -265 10q-15 0 -29 16l-16 -1q-33 4 -33 26v5q0 32 81 37q91 9 100 9l234 -5q0 -1 23 -2q0 29 30 217
q14 85 16 112q4 10 19 89q12 49 20 49q0 2 12 8q8 43 13 43q6 12 22 12z" />
    <glyph glyph-name="u" unicode="u" horiz-adv-x="623" 
d="M128 257q8 0 23 -10q21 6 28 6q29 -5 29 -28q0 -20 -42 -43q-18 -10 -25 -34q-7 -32 -7 -45v-11q0 -45 48 -81q14 -9 32 -9q45 0 226 96q36 20 122 91q1 0 18 13h2q31 -36 31 -42q-1 0 -16 -11v-3q0 -22 -43 -55q-17 -16 -39 -38q0 -24 -54 -53q-138 -76 -150 -76
q-13 0 -35 -9q-47 -14 -77 -14h-6q-97 0 -140 101q-18 50 -18 80q5 67 10 67l21 51q37 57 62 57z" />
    <glyph glyph-name="v" unicode="v" horiz-adv-x="485" 
d="M71 280q29 0 60 -75q24 -46 48 -137q32 -83 44 -92q2 -1 4 -1h2q28 0 139 112q1 0 51 48l21 18q1 0 35 -38q0 -1 -8 -8l1 -7v-7q0 -16 -51 -69q0 -2 -4 -6q3 -5 3 -12q0 -18 -51 -69q-74 -79 -105 -79h-1q-5 0 -13 4q-2 0 -11 -1q-43 3 -95 41q-38 44 -59 128
q-13 37 -24 80q-3 7 -10 48q-12 37 -12 47q0 12 12 24q-5 12 -5 23q0 23 29 28z" />
    <glyph glyph-name="w" unicode="w" horiz-adv-x="793" 
d="M113 427h6q21 0 26 -33v-4q-9 -111 -9 -122q0 -87 18 -161q16 -38 36 -38h8q10 0 28 6q36 60 99 60q57 0 113 -54q17 -7 95 -81q41 -36 81 -36q55 0 123 124l2 1q44 -25 44 -27q-17 -30 -17 -33q4 -7 4 -12v-2q0 -30 -59 -84q-26 -16 -27 -21q15 -6 17 -6v-2
q-42 -8 -58 -15v-8q-5 -27 -35 -27h-5q-83 0 -148 67q-59 53 -70 79q-19 26 -21 26q-2 1 -5 1h-9q-37 0 -50 -25q-59 -70 -119 -70q-59 0 -105 76q-18 34 -30 72q-8 48 -8 75q-2 0 -3 19q3 27 3 31v15q4 127 17 132q9 12 20 12h2q9 65 36 65z" />
    <glyph glyph-name="x" unicode="x" horiz-adv-x="840" 
d="M746 293q36 0 46 -22q0 -11 14 -11q24 -11 24 -27v-5q0 -18 -23 -26q-7 -3 -20 -3q-11 0 -41 2q-2 0 -28 -24q-81 -54 -214 -152q91 -115 142 -135q0 -2 42 -21v-1q0 -5 -22 -47q-1 0 -15 7q0 -4 -20 -8q-31 1 -95 50h-19q-24 0 -97 87q-9 -6 -142 -116q-45 -35 -52 -35
q-28 41 -28 43q9 6 9 7v9q0 17 51 61q0 1 13 13q-2 3 -2 8v2q0 20 43 56q42 38 42 40t1 4q-59 74 -118 142q-9 5 -14 6q-17 -4 -34 -21q-16 -19 -56 -76q-13 -12 -25 -12q-4 1 -8 1q-19 -28 -34 -28h-6q-20 0 -25 29v1q0 21 49 109q21 41 46 61q27 21 89 21q5 1 12 1
q51 0 103 -59q42 -29 85 -90q1 -3 21 -28q91 80 114 87q91 60 108 74q9 2 45 20q20 6 39 6z" />
    <glyph glyph-name="y" unicode="y" horiz-adv-x="528" 
d="M214 272h2q27 -4 27 -24v-8q0 -3 -19 -58q-15 -47 -15 -89v-1q0 -46 20 -70q5 -10 17 -20q22 0 60 34q36 26 48 41q43 54 69 62q-2 22 -2 32h1l26 -30q4 25 6 25h1l11 -28h12q2 0 7 -13h7l2 -1q-5 -11 -5 -12q29 -17 29 -70q0 -61 -52 -332q-24 -90 -55 -156
q-28 -80 -54 -121q-35 -65 -157 -160q-55 -46 -105 -56l-44 -10q-16 42 -16 49v1q64 24 64 27q2 12 48 47q34 25 100 95q15 16 15 21q0 7 61 161q27 75 48 178q10 66 21 66q9 58 18 155q-52 -51 -86 -76h2v-2q-7 0 -34 -17q-23 -10 -43 -10q-7 0 -18 2q-13 -3 -27 -4
q-26 0 -47 26q-21 5 -21 7l13 4q-18 20 -28 80q-8 19 -8 78v19q0 1 1 1q0 1 -1 1l1 6q0 65 25 74q7 2 12 2h2l2 -1q34 75 59 75z" />
    <glyph glyph-name="z" unicode="z" horiz-adv-x="561" 
d="M261 314h1q26 0 66 -12q87 0 107 -58q8 -22 17 -22q2 -3 5 -3v-2h-11q1 -10 1 -15v-8q-4 -71 -8 -71q0 -12 -32 -61q-58 -91 -65 -127v-5q0 -37 25 -47q20 -9 88 -18q86 -10 96 -12v-1q-4 -50 -7 -50q-6 0 -24 2q-8 -16 -36 -16q-43 0 -118 12q-9 -15 -25 -15
q-24 0 -70 25q-49 44 -49 102q0 47 45 135q4 5 17 13q17 29 67 110q8 14 14 32q-5 9 -30 9q0 2 -34 3q-12 0 -130 -14q-24 -1 -27 -1q-38 0 -48 13l-6 11q-48 0 -55 31v6q0 23 40 28q56 0 124 14q32 12 62 12z" />
    <glyph glyph-name="zero" unicode="0" horiz-adv-x="526" 
d="M299 274h6q25 -5 25 -25v-4q0 -20 -46 -46q-48 -29 -77 -87q-49 -72 -49 -125q0 -54 41 -54h9q1 0 1 -1q2 1 3 1q68 0 166 67q34 27 34 69v10q0 26 -25 35q-47 16 -50 17v1q13 45 15 48h2q1 0 25 -7q9 9 20 9q42 -9 60 -30q20 -28 29 -58q2 -21 3 -21q24 -8 24 -24
q1 -4 1 -8v-5q0 -48 -44 -102q-54 -51 -107 -75q-52 -24 -67 -24h-21q-61 -11 -100 -11q-91 0 -133 86q-9 21 -9 42v5q0 62 40 145q28 42 40 63q8 9 52 61q47 47 70 47q10 0 22 -11q29 12 40 12z" />
    <glyph glyph-name="one" unicode="1" 
d="M142 268q20 0 30 -27q1 -5 1 -9v-4q0 -7 -2 -31q2 -21 2 -30v-1q-11 -106 -27 -184q-17 -120 -17 -146l-2 -1h-21q-14 -5 -19 -5q-27 0 -31 40q-1 9 -1 22q-20 8 -20 38v3q0 84 11 96q8 0 8 60q15 68 15 96q3 0 11 63q1 8 3 8h1q6 -13 6 -14h1q7 7 24 10q10 16 27 16z
" />
    <glyph glyph-name="two" unicode="2" horiz-adv-x="538" 
d="M217 312q60 0 78 -48q10 -26 10 -58q0 -82 -68 -172q-63 -92 -65 -114q51 -33 201 -33h66q48 0 86 2q0 -1 1 -1l2 -51q-2 -1 -3 -1q-23 -1 -24 -1q-10 -19 -27 -19q0 -3 -126 -10q-6 -20 -42 -20q-8 1 -14 1h-1q-173 0 -226 51q-30 26 -30 58v1q0 9 12 23q0 16 62 118
q73 102 108 160q0 3 5 17q-8 2 -12 2q-11 0 -66 -21h-5q-8 0 -18 5q-27 -24 -44 -24q-23 0 -27 29q0 31 86 84q40 22 81 22z" />
    <glyph glyph-name="three" unicode="3" horiz-adv-x="623" 
d="M269 352q34 0 77 -17q46 0 87 -31q27 -26 32 -48q4 -10 7 -33q9 -18 34 -81q17 -30 43 -57q28 -26 43 -60q21 -41 21 -76q0 -53 -55 -95q-5 -17 -69 -43q-58 -24 -210 -64q-2 3 -14 50l31 10q0 22 81 47q55 21 64 27q0 15 46 36q28 18 39 49q-3 10 -28 33q-4 11 -13 16
q-36 18 -76 65q-24 36 -24 90v40q0 1 1 1q0 1 -1 1l1 5q0 18 -14 22q-39 9 -80 9q-27 0 -155 -6h-6q-18 0 -28 17q-23 -5 -36 -5h-2q-19 0 -27 16q-3 7 -3 13q0 35 103 49q108 20 131 20z" />
    <glyph glyph-name="four" unicode="4" horiz-adv-x="514" 
d="M284 366q27 -6 27 -27v-5q0 -28 -81 -131q-62 -65 -82 -97q30 -14 194 -14q2 -1 40 -2q0 9 14 108q1 15 3 26l-1 6q11 70 17 84q11 17 24 17q8 30 30 30h4q21 0 28 -31q1 -2 2 -13q-1 -28 -1 -43q0 -9 2 -47q-16 -166 -16 -173q-8 -43 -17 -232v-5q0 -34 6 -77
q-3 -2 -27 -5v1q-16 -3 -25 -3q0 5 -10 8q-17 18 -17 38q-3 13 -7 43q-21 9 -21 31q-2 34 -2 49q0 100 7 100q4 0 5 11h-1q-15 0 -40 -2q0 -14 -34 -21q-50 -4 -124 -6q-53 0 -56 11q-58 21 -84 70q-6 16 -6 31v11q0 51 61 107q0 2 55 59q2 5 36 34q36 41 51 41h1l13 -2
q13 20 32 20z" />
    <glyph glyph-name="five" unicode="5" horiz-adv-x="683" 
d="M364 357q16 -1 53 -2q14 1 18 1l98 -11q67 -8 67 -18q2 0 9 -12h23q30 0 39 -17q2 -8 2 -10v-4q0 -27 -51 -33l-16 -1q-8 0 -113 1q-151 0 -187 -22q-100 -48 -131 -128q24 -18 102 -50q38 -14 76 -53q42 -49 42 -104q0 -87 -80 -136l-33 -17q-24 39 -25 45q0 2 28 17v11
q0 12 22 39q7 14 7 29q-3 36 -10 36q-12 8 -42 32q-25 14 -93 27q-66 8 -92 18q-42 23 -42 46q0 8 7 17q-2 7 -2 12v3q0 28 92 174q47 69 112 90q73 20 120 20z" />
    <glyph glyph-name="six" unicode="6" horiz-adv-x="351" 
d="M247 329q27 -4 27 -27q1 0 1 -1q0 -20 -46 -67q-33 -48 -65 -132q-9 -34 -9 -65v-13q0 -88 87 -119q9 17 25 17q30 0 38 -12q36 -27 36 -50v-6q0 -25 -48 -50q-24 -8 -45 -8q-44 2 -52 5q-9 -5 -47 -31h-1q-4 4 -30 42l5 5q-3 0 -7 1v1l1 2q-3 0 -26 6v2l30 9q0 4 -19 24
q-67 98 -67 169v4q2 37 41 139q13 22 28 52q6 5 31 43q39 47 57 47h5q7 0 14 -5q21 18 36 18z" />
    <glyph glyph-name="seven" unicode="7" horiz-adv-x="509" 
d="M359 394q31 0 75 -20q31 -21 41 -49q24 -33 24 -69v-7q-45 -418 -45 -506v-37q0 -2 -2 -2h-49q-2 0 -2 2v23q-20 9 -20 46v99q-18 7 -18 32v13q8 233 19 233q5 5 5 7q9 110 9 124q0 5 -2 23h-1q-116 -13 -184 -29q-58 -16 -87 -16q-18 0 -27 19q-10 -1 -15 -1h-12
q-33 4 -33 27q0 32 58 41q55 11 134 40q27 5 44 5h15q11 0 33 -2q23 3 40 4z" />
    <glyph glyph-name="eight" unicode="8" horiz-adv-x="357" 
d="M237 387h4q17 0 26 -19q26 2 47 2q33 -3 33 -29q0 -30 -64 -38q-74 -13 -102 -29q-39 -22 -39 -38v-5q0 -42 81 -145q0 -2 6 -9q26 38 55 72q41 -30 41 -31l-24 -34q3 -9 3 -12v-5q0 -14 -36 -67q18 -39 18 -83v-13q0 -71 -55 -126q0 -2 -7 -12q0 -2 16 -6v-1
q-2 -2 -40 -19q0 -1 -4 -4l9 -21q-1 0 -1 -1l-25 15q-7 0 -7 -2l3 -10v-1l-21 8q-11 0 -11 -2q-4 -10 -4 -11h-2q-1 13 -6 13q-16 0 -43 11q-25 3 -25 5q14 8 15 8q-7 18 -7 32q0 28 20 73q0 22 37 76q38 58 40 61q-13 31 -66 99q-67 83 -67 134q0 13 4 26q-2 18 -2 22
q0 48 59 68q6 0 23 13q22 14 77 29q29 6 41 6z" />
    <glyph glyph-name="nine" unicode="9" horiz-adv-x="377" 
d="M182 364h6q65 0 94 -91q3 -13 5 -28h2q10 -2 11 -2q21 31 40 31q23 0 27 -29v-2q0 -23 -31 -51q-8 -16 -47 -34q-13 0 -13 -17q-17 -68 -38 -168q-19 -65 -38 -101q-48 -94 -67 -138h-1q-47 20 -47 23q11 23 11 26q-7 8 -7 19q0 12 40 107q9 22 9 25q-6 10 -6 16v3
q0 27 32 175h-2q-15 0 -36 7v-1q2 -14 2 -16h-2q-20 30 -26 30q-20 17 -29 32q-36 31 -36 67q0 20 15 46q0 3 -2 13h1q6 -7 7 -7q0 5 32 29q57 36 94 36zM125 243v-3q10 -9 37 -9h17l5 1q-4 21 -9 31q-22 0 -50 -20z" />
    <glyph glyph-name="yen" unicode="&#xa5;" horiz-adv-x="854" 
d="M118 457q29 0 67 -80q46 -66 73 -135q60 -125 77 -125q32 0 111 84q40 52 118 141h2l38 -32v-1q-8 -11 -9 -11q3 -7 3 -11v-6q0 -14 -46 -73q-10 -15 -10 -17q3 -5 4 -14q-8 -38 -83 -115h1q102 -4 188 -15q7 0 71 -6q2 0 12 1q14 0 35 -11h6v2h2q4 -4 10 -4q4 8 6 8
t6 -15h1q3 1 11 5l2 -3v-8h14l-1 -5q2 1 9 2q0 -1 1 -1l-11 -19q18 -10 18 -12v-1q-17 -4 -17 -7q6 -4 8 -9l-2 -1h-14l1 -5v-1q-5 -1 -8 -1q-1 -10 -1 -15v-1q0 -1 -3 -3q-1 2 -12 9q-8 -15 -18 -27q-2 1 -8 21q-11 -5 -26 -5h-8q-1 0 -8 -2q0 3 -1 3q-160 11 -248 19
q0 1 -50 6q-6 -17 -11 -87q-1 -1 -4 -17q9 0 20 -10q101 -4 148 -12l59 -6q6 1 8 1q15 -3 90 -9v-1q-1 -3 -6 -3v-2q5 0 13 -18q31 -7 31 -31q0 -29 -48 -34q-17 0 -85 -8q-143 10 -215 20q0 1 -36 4v-1q-10 -54 -14 -102h-18q-2 0 -4 1q-9 -5 -15 -5h-6q-17 0 -26 23
q-3 8 -4 39q-17 9 -17 23q-1 0 -2 12q1 6 1 10v10q-70 7 -120 7q-2 0 -2 2v49q5 3 13 13q5 10 70 12h5q0 8 16 16q8 4 30 4h8q3 42 11 77q2 30 4 33l-286 21q0 2 -2 2q3 45 3 50l2 1h12l2 -1q10 18 35 18h42q15 0 42 1q8 18 33 18q6 0 11 1q-15 23 -45 98q0 2 -48 100
q0 3 -23 54q-13 33 -13 42q0 11 10 22q-9 22 -9 32q0 18 22 26q6 0 7 1z" />
    <glyph glyph-name="Euro" unicode="&#x20ac;" horiz-adv-x="631" 
d="M515 475q35 -4 35 -32q51 -16 51 -42q0 -24 -31 -28q-43 3 -50 3q-72 0 -126 -86q-30 -40 -66 -137h1q53 0 123 -11q5 0 40 -4l9 1l64 -12q28 -9 28 -27q1 -3 17 -10q10 -10 11 -22q0 -22 -26 -31q-8 -2 -14 -2h-18q-10 0 -22 1q-34 -3 -45 -3q-120 9 -174 15q0 1 -28 4
q-10 -42 -10 -80q65 0 137 -11q57 -6 72 -13q56 -13 56 -23q3 -1 8 -17q24 -8 24 -27v-4q0 -23 -35 -30q-10 0 -10 -1q-91 4 -111 9q-69 5 -119 10q0 1 -10 2q15 -71 28 -93q21 -46 81 -69q24 -10 89 -18q8 0 12 -2q-3 -22 -3 -35v-4h-2v-4q0 -7 -3 -8q-28 2 -28 3
q-8 -14 -28 -14q-58 0 -136 50q0 -7 -11 -8h-4q-26 0 -50 39q-32 43 -44 100l-20 73q-97 5 -121 5h-17q-2 0 -2 3q0 26 -2 40q0 28 44 32q33 2 33 6q5 17 43 19q11 0 20 1q3 36 9 76q-81 6 -120 6h-15l-2 1q-1 19 -1 27v23q15 22 31 22q30 4 49 4q8 20 29 20q0 2 60 3
q72 180 114 218l33 35q13 10 34 17q55 34 119 40z" />
    <glyph glyph-name="dollar" unicode="$" horiz-adv-x="989" 
d="M523 527q23 0 28 -32q0 -5 -15 -82q-3 -88 -8 -122q-1 0 -3 -22q5 0 108 13q7 0 10 13q8 14 14 32q3 4 28 46q29 36 46 36h1q5 0 15 -3q15 15 26 15h7q20 0 25 -29v-1q0 -18 -35 -62q-8 -12 -17 -46h1q113 -2 113 -11q10 -8 10 -14q45 3 69 3h2q20 0 29 -17q2 -7 2 -11
q0 -30 -63 -37q-39 -5 -189 -11q0 -2 -21 -2q-15 -38 -70 -148l-16 -44q13 -11 33 -28l14 -10q8 15 9 15h1v-1q0 -15 2 -31l3 2l1 -2q-2 -4 -2 -6q2 -9 2 -13l12 6l1 -2q-13 -17 -13 -21v-1h1l9 3l1 -2q-10 -5 -10 -24q-4 -21 -18 -35l-9 -21q-3 0 -19 -35h-2q-1 5 -2 27
q-43 -41 -72 -48q0 -8 -3 -14q-3 1 -26 5q-30 -7 -69 -18q-11 -2 -11 -4q-10 -78 -10 -100q0 -17 4 -54q-4 -2 -27 -5v1q-1 -1 -25 -3q-3 22 -7 22q-17 9 -17 36q-1 0 -2 32q1 14 1 30v29q-80 -12 -223 -28l-102 -18q-4 15 -10 51q4 2 57 12q0 24 71 32q130 20 180 31
q0 7 14 18q16 161 22 161q8 5 8 26l2 16q-63 32 -78 78q-8 26 -8 39v3q0 23 23 52q15 29 54 43q32 9 36 11l14 114l12 68q13 57 39 57h4q12 40 38 40zM502 81l26 -14q0 4 15 15q26 58 37 85h-1q-55 -8 -67 -15zM485 -29q0 -7 -18 -128h1q33 6 33 10q0 3 2 16q-14 9 -14 23v3
q0 15 11 68zM591 -108q-2 -9 -2 -11h1q7 2 7 4q-4 7 -6 7z" />
    <glyph glyph-name="sterling" unicode="&#xa3;" horiz-adv-x="888" 
d="M633 447q25 0 68 -19q11 -11 36 -20q26 -15 62 -48q49 -43 49 -64q0 -7 -7 -20q37 -51 37 -69q-4 -27 -27 -27h-4q-16 0 -53 48q-47 55 -74 74q-51 31 -85 31h-7q-82 0 -150 -157q-16 -30 -52 -112q-3 -9 -3 -12q131 -22 200 -29l6 -2q-4 -42 -4 -51q-4 0 -11 -9
q-10 -9 -31 -9h-4q-15 0 -40 1q-8 -17 -29 -17h-3q-37 0 -126 11q-13 -27 -69 -93l-47 -79q12 -6 98 -11q111 -7 226 -9q0 -1 1 -1l-1 -5v-45l-1 -2q-10 1 -15 1h-37q-9 -19 -52 -19h-7q-94 1 -175 1q-8 -16 -34 -16h-21v-1l11 -15v-1h-1q-42 20 -59 20q-23 4 -52 23
q0 -1 -1 -1q0 2 -20 20q-11 12 -11 44v1l-10 14q1 0 1 1q8 -4 11 -4q0 24 69 89q68 69 68 77q14 21 19 33h-1q-61 14 -104 14q-1 0 -8 -1q-45 6 -70 11q-18 5 -23 18q0 11 -11 11q-20 10 -20 25v6q0 28 50 31h10q3 0 7 -1l61 5h1q120 -9 155 -17q29 106 46 163q15 42 39 76
q101 129 195 129q25 8 34 8z" />
  </font>
</defs>
</svg>
